<svg xmlns="http://www.w3.org/2000/svg" width="1200" height="1600" viewBox="0 0 1200 1600">
  <defs>
    <marker id="arrow-blue" markerWidth="10" markerHeight="10" refX="9" refY="5" orient="auto">
      <path d="M0,0 L10,5 L0,10 z" fill="#2c6aa8"/>
    </marker>
    <marker id="arrow-green" markerWidth="10" markerHeight="10" refX="9" refY="5" orient="auto">
      <path d="M0,0 L10,5 L0,10 z" fill="#178a62"/>
    </marker>
    <marker id="arrow-orange" markerWidth="10" markerHeight="10" refX="9" refY="5" orient="auto">
      <path d="M0,0 L10,5 L0,10 z" fill="#cc6b1d"/>
    </marker>
    <marker id="arrow-purple" markerWidth="10" markerHeight="10" refX="9" refY="5" orient="auto">
      <path d="M0,0 L10,5 L0,10 z" fill="#6f5aa5"/>
    </marker>
    <style>
      .title { font: 700 40px 'DejaVu Sans', Arial, sans-serif; fill: #111; }
      .section-title { font: 700 30px 'DejaVu Sans', Arial, sans-serif; fill: #111; }
      .box-title { font: 700 24px 'DejaVu Sans', Arial, sans-serif; fill: #111; }
      .box-text { font: 400 22px 'DejaVu Sans', Arial, sans-serif; fill: #111; }
      .small { font: 400 18px 'DejaVu Sans', Arial, sans-serif; fill: #333; }
      .label { font: 700 18px 'DejaVu Sans', Arial, sans-serif; fill: #111; }
      .callout { font: 700 16px 'DejaVu Sans', Arial, sans-serif; fill: #111; }
    </style>
  </defs>

  <rect x="0" y="0" width="1200" height="1600" fill="#ffffff"/>
  <text x="600" y="65" text-anchor="middle" class="title">ABM-ETOP Conceptual Framework</text>

  <rect x="60" y="1210" rx="28" ry="28" width="1080" height="250" fill="#e7f0fb" stroke="#2c6aa8" stroke-width="5"/>
  <text x="600" y="1190" text-anchor="middle" class="section-title">Agent Interactions Layer</text>

  <rect x="160" y="1275" rx="22" ry="22" width="230" height="130" fill="#f5f9fe" stroke="#2c6aa8" stroke-width="4"/>
  <text x="275" y="1330" text-anchor="middle" class="box-title">Commuter</text>
  <text x="275" y="1364" text-anchor="middle" class="box-title">Agents</text>
  <text x="275" y="1394" text-anchor="middle" class="box-text">(income, age, health, tech)</text>

  <rect x="485" y="1275" rx="22" ry="22" width="230" height="130" fill="#f5f1ff" stroke="#6f5aa5" stroke-width="4"/>
  <text x="600" y="1330" text-anchor="middle" class="box-title">System</text>
  <text x="600" y="1364" text-anchor="middle" class="box-title">Coordinator</text>
  <text x="600" y="1394" text-anchor="middle" class="box-text">(MaaS platform)</text>

  <rect x="810" y="1275" rx="22" ry="22" width="230" height="130" fill="#eefaf5" stroke="#178a62" stroke-width="4"/>
  <text x="925" y="1330" text-anchor="middle" class="box-title">Service Provider</text>
  <text x="925" y="1364" text-anchor="middle" class="box-title">Agents</text>
  <text x="925" y="1394" text-anchor="middle" class="box-text">(modes and capacity)</text>

  <line x1="390" y1="1320" x2="485" y2="1320" stroke="#2c6aa8" stroke-width="4" marker-end="url(#arrow-blue)"/>
  <text x="438" y="1294" text-anchor="middle" class="callout">Travel requests</text>
  <line x1="485" y1="1366" x2="390" y2="1366" stroke="#2c6aa8" stroke-width="4" marker-end="url(#arrow-blue)"/>
  <text x="438" y="1440" text-anchor="middle" class="callout">Travel options</text>

  <line x1="715" y1="1320" x2="810" y2="1320" stroke="#178a62" stroke-width="4" marker-end="url(#arrow-green)"/>
  <text x="762" y="1294" text-anchor="middle" class="callout">Demand patterns</text>
  <line x1="810" y1="1366" x2="715" y2="1366" stroke="#178a62" stroke-width="4" marker-end="url(#arrow-green)"/>
  <text x="762" y="1440" text-anchor="middle" class="callout">Service availability</text>

  <rect x="60" y="850" rx="28" ry="28" width="1080" height="290" fill="#e9f8f1" stroke="#178a62" stroke-width="5"/>
  <text x="600" y="830" text-anchor="middle" class="section-title">Policy Intervention Layer</text>

  <rect x="120" y="950" rx="22" ry="22" width="330" height="150" fill="#fff6dc" stroke="#cc9b17" stroke-width="4"/>
  <text x="285" y="1015" text-anchor="middle" class="box-title">Fixed Pool Subsidy (FPS)</text>
  <text x="285" y="1055" text-anchor="middle" class="box-text">Budget cap for subsidy delivery</text>

  <rect x="500" y="900" rx="22" ry="22" width="540" height="210" fill="#f3fcf8" stroke="#178a62" stroke-width="4"/>
  <text x="770" y="955" text-anchor="middle" class="box-title">Subsidy Allocation Framework</text>

  <text x="610" y="995" text-anchor="middle" class="label">Bike</text>
  <text x="700" y="995" text-anchor="middle" class="label">Car</text>
  <text x="790" y="995" text-anchor="middle" class="label">Public</text>
  <text x="880" y="995" text-anchor="middle" class="label">MaaS</text>

  <text x="545" y="1045" text-anchor="end" class="label">Low</text>
  <text x="545" y="1095" text-anchor="end" class="label">Middle</text>
  <text x="545" y="1145" text-anchor="end" class="label">High</text>

  <rect x="565" y="1015" width="70" height="40" fill="#4cbf8b" stroke="#178a62" stroke-width="1.5"/>
  <rect x="655" y="1015" width="70" height="40" fill="#6bc79a" stroke="#178a62" stroke-width="1.5"/>
  <rect x="745" y="1015" width="70" height="40" fill="#3ea97a" stroke="#178a62" stroke-width="1.5"/>
  <rect x="835" y="1015" width="70" height="40" fill="#7fcfa7" stroke="#178a62" stroke-width="1.5"/>

  <rect x="565" y="1065" width="70" height="40" fill="#9ad9b8" stroke="#178a62" stroke-width="1.5"/>
  <rect x="655" y="1065" width="70" height="40" fill="#87d2ad" stroke="#178a62" stroke-width="1.5"/>
  <rect x="745" y="1065" width="70" height="40" fill="#b6e5ca" stroke="#178a62" stroke-width="1.5"/>
  <rect x="835" y="1065" width="70" height="40" fill="#cbeed8" stroke="#178a62" stroke-width="1.5"/>

  <rect x="565" y="1115" width="70" height="40" fill="#dbf4e6" stroke="#178a62" stroke-width="1.5"/>
  <rect x="655" y="1115" width="70" height="40" fill="#eefaf3" stroke="#178a62" stroke-width="1.5"/>
  <rect x="745" y="1115" width="70" height="40" fill="#d0efdd" stroke="#178a62" stroke-width="1.5"/>
  <rect x="835" y="1115" width="70" height="40" fill="#e5f7ed" stroke="#178a62" stroke-width="1.5"/>

  <circle cx="600" cy="1035" r="14" fill="#178a62"/>
  <circle cx="690" cy="1035" r="12" fill="#178a62"/>
  <circle cx="780" cy="1035" r="15" fill="#178a62"/>
  <circle cx="870" cy="1035" r="11" fill="#178a62"/>

  <circle cx="600" cy="1085" r="10" fill="#178a62"/>
  <circle cx="690" cy="1085" r="9" fill="#178a62"/>
  <circle cx="780" cy="1085" r="7" fill="#178a62"/>
  <circle cx="870" cy="1085" r="6" fill="#178a62"/>

  <circle cx="600" cy="1135" r="5" fill="#178a62"/>
  <circle cx="690" cy="1135" r="3" fill="#178a62"/>
  <circle cx="780" cy="1135" r="6" fill="#178a62"/>
  <circle cx="870" cy="1135" r="5" fill="#178a62"/>

  <text x="770" y="1190" text-anchor="middle" class="small">Darker cells and larger circles indicate higher illustrative allocation percentages.</text>
  <line x1="450" y1="1025" x2="500" y2="1025" stroke="#cc9b17" stroke-width="4" marker-end="url(#arrow-green)"/>
  <text x="476" y="1000" text-anchor="middle" class="callout">Distributes</text>

  <rect x="60" y="500" rx="28" ry="28" width="1080" height="250" fill="#fff3ea" stroke="#cc6b1d" stroke-width="5"/>
  <text x="600" y="480" text-anchor="middle" class="section-title">System-Level Outcomes Layer</text>

  <rect x="210" y="605" rx="20" ry="20" width="240" height="95" fill="#ffffff" stroke="#cc6b1d" stroke-width="4"/>
  <text x="330" y="647" text-anchor="middle" class="box-title">Mode Share Equity</text>
  <text x="330" y="682" text-anchor="middle" class="box-text">(vertical equity 1)</text>

  <rect x="480" y="605" rx="20" ry="20" width="240" height="95" fill="#ffffff" stroke="#cc6b1d" stroke-width="4"/>
  <text x="600" y="647" text-anchor="middle" class="box-title">Travel Time Equity</text>
  <text x="600" y="682" text-anchor="middle" class="box-text">(vertical equity 2)</text>

  <rect x="750" y="590" rx="20" ry="20" width="250" height="120" fill="#eefaf5" stroke="#178a62" stroke-width="4"/>
  <text x="875" y="632" text-anchor="middle" class="box-title">Total System</text>
  <text x="875" y="666" text-anchor="middle" class="box-title">Travel Time</text>
  <text x="875" y="700" text-anchor="middle" class="box-text">(efficiency indicator)</text>

  <rect x="280" y="530" rx="18" ry="18" width="640" height="55" fill="#fffaf6" stroke="#cc6b1d" stroke-width="4"/>
  <text x="600" y="566" text-anchor="middle" class="box-title">Equity-Efficiency Trade-offs</text>

  <line x1="330" y1="605" x2="470" y2="585" stroke="#cc6b1d" stroke-width="4" marker-end="url(#arrow-orange)"/>
  <line x1="600" y1="605" x2="600" y2="585" stroke="#cc6b1d" stroke-width="4" marker-end="url(#arrow-orange)"/>
  <line x1="875" y1="590" x2="730" y2="585" stroke="#178a62" stroke-width="4" marker-end="url(#arrow-green)"/>

  <line x1="690" y1="900" x2="360" y2="700" stroke="#cc6b1d" stroke-width="4" stroke-dasharray="12 10" marker-end="url(#arrow-orange)"/>
  <text x="470" y="830" text-anchor="middle" class="callout">Impacts</text>
  <line x1="770" y1="900" x2="600" y2="700" stroke="#cc6b1d" stroke-width="4" stroke-dasharray="12 10" marker-end="url(#arrow-orange)"/>
  <text x="665" y="818" text-anchor="middle" class="callout">Affects</text>
  <line x1="880" y1="900" x2="875" y2="710" stroke="#178a62" stroke-width="4" stroke-dasharray="12 10" marker-end="url(#arrow-green)"/>
  <text x="930" y="820" text-anchor="middle" class="callout">Influences</text>

  <rect x="60" y="150" rx="28" ry="28" width="1080" height="220" fill="#f2eefd" stroke="#6f5aa5" stroke-width="5"/>
  <text x="600" y="130" text-anchor="middle" class="section-title">Optimization Process</text>

  <rect x="150" y="220" rx="18" ry="18" width="170" height="95" fill="#ffffff" stroke="#6f5aa5" stroke-width="4"/>
  <rect x="370" y="220" rx="18" ry="18" width="170" height="95" fill="#ffffff" stroke="#6f5aa5" stroke-width="4"/>
  <rect x="590" y="220" rx="18" ry="18" width="170" height="95" fill="#ffffff" stroke="#6f5aa5" stroke-width="4"/>
  <rect x="810" y="220" rx="18" ry="18" width="170" height="95" fill="#ffffff" stroke="#6f5aa5" stroke-width="4"/>

  <text x="235" y="260" text-anchor="middle" class="box-title">Simulation</text>
  <text x="235" y="294" text-anchor="middle" class="box-text">Run ABM</text>

  <text x="455" y="260" text-anchor="middle" class="box-title">Evaluation</text>
  <text x="455" y="294" text-anchor="middle" class="box-text">Metrics</text>

  <text x="675" y="260" text-anchor="middle" class="box-title">Bayesian</text>
  <text x="675" y="294" text-anchor="middle" class="box-text">Optimization</text>

  <text x="895" y="260" text-anchor="middle" class="box-title">Policy</text>
  <text x="895" y="294" text-anchor="middle" class="box-text">Update</text>

  <line x1="320" y1="268" x2="370" y2="268" stroke="#6f5aa5" stroke-width="4" marker-end="url(#arrow-purple)"/>
  <line x1="540" y1="268" x2="590" y2="268" stroke="#6f5aa5" stroke-width="4" marker-end="url(#arrow-purple)"/>
  <line x1="760" y1="268" x2="810" y2="268" stroke="#6f5aa5" stroke-width="4" marker-end="url(#arrow-purple)"/>
  <path d="M980 325 C 960 365, 250 365, 235 325" fill="none" stroke="#6f5aa5" stroke-width="4" marker-end="url(#arrow-purple)"/>
  <text x="600" y="356" text-anchor="middle" class="callout">Iterate</text>

  <path d="M980 315 C 1010 430, 1010 720, 950 900" fill="none" stroke="#6f5aa5" stroke-width="4" stroke-dasharray="12 10" marker-end="url(#arrow-purple)"/>
  <text x="1020" y="690" text-anchor="middle" class="callout">Update allocation</text>

  <path d="M930 530 C 915 455, 770 380, 675 315" fill="none" stroke="#6f5aa5" stroke-width="3" opacity="0.35"/>
  <path d="M875 590 C 780 430, 545 390, 455 315" fill="none" stroke="#6f5aa5" stroke-width="3" opacity="0.35"/>
</svg>
